# xmcd CD database file
#
# Track frame offsets:
#	150
#	18112
#	35487
#	51686
#	68639
#	86501
#	103774
#	119162
#	133343
#	150825
#	166816
#	184022
#	200264
#	213895
#	233552
#	247974
#	264434
#	281093
#	296647
#	314878
#
# Disc length: 4466 seconds
#
# Revision: 2
# Processed by: cddbd v1.4b41PL1 Copyright (c) Steve Scherf et al.
# Submitted via: Feurio! 1.60 - http://www.feurio.com
#
DISCID=23117014,27117014
DTITLE=Olaf Henning - Alarmstufe Rot
DYEAR=1900
DGENRE=
TTITLE0=Olaf Henning 01 -  Dein Prinz
TTITLE1=Olaf Henning 02 -  Cowboy und Indianer
TTITLE2=Olaf Henning03 -  Alarmstufe rot
TTITLE3=Olaf Henning04 -  Das Spiel ist aus ( Game over)
TTITLE4=Olaf Henning05 -  Frei wie ein Vogel
TTITLE5=Olaf Henning06 -  Verloren an Dich
TTITLE6=Olaf Henning07 -  Null Null Sieben
TTITLE7=Olaf Henning08 -  Und ab dafür
TTITLE8=Olaf Henning09 -  Das Spielt doch keine Geige
TTITLE9=Olaf Henning10 -  Das Juckt mich doch alles überhaupt nicht mehr
TTITLE10=Olaf Henning11 -  Hör auf damit
TTITLE11=Olaf Henning12 -  Herzbluten
TTITLE12=Olaf Henning13 -  Das größte Ding der Welt
TTITLE13=Olaf Henning14 -  Halt dich fest
TTITLE14=Olaf Henning15 -  Du mußt dich entscheiden
TTITLE15=Olaf Henning16 -  Auf die nächsten 1000 Jahre
TTITLE16=Olaf Henning17 -  Immer nach vorne
TTITLE17=Olaf Henning18 -  Das geht ja garnicht
TTITLE18=Olaf Henning19 -  geh doch
TTITLE19=Olaf Henning20 -  Alle zusammen
EXTD=
EXTT0=
EXTT1=
EXTT2=
EXTT3=
EXTT4=
EXTT5=
EXTT6=
EXTT7=
EXTT8=
EXTT9=
EXTT10=
EXTT11=
EXTT12=
EXTT13=
EXTT14=
EXTT15=
EXTT16=
EXTT17=
EXTT18=
EXTT19=
PLAYORDER=
